<svg height="512" viewBox="0 0 60 60" width="512" xmlns="http://www.w3.org/2000/svg"><g id="014---Expensive-Investment" fill="none"><g id="Icons" transform="translate(1 1)"><path id="Shape" d="m45.72 49.39-.86 1.82c-.4722035 1.0134425-1.6765575 1.4522034-2.69.9799999-1.0134425-.4722034-1.4522034-1.6765574-.98-2.6899999l.87-1.83z" fill="#14a085"/><path id="Shape" d="m10 5v21h-9c-.55228475 0-1-.4477153-1-1v-20c0-2.76142375 2.23857625-5 5-5s5 2.23857625 5 5z" fill="#fec108"/><path id="Shape" d="m41.19 49.5c-.4722034 1.0134425-.0334425 2.2177965.98 2.6899999 1.0134425.4722035 2.2177965.0334426 2.69-.9799999 0-.11.1-.21.14-.31 1.19-2.55.22-.53 3-5v11.1c0 .5522847-.4477153 1-1 1h-36c-.5522847 0-1-.4477153-1-1v-52c0-1.32608245-.5267842-2.59785201-1.46446609-3.53553391-.9376819-.93768189-2.20945146-1.46446609-3.53553391-1.46446609h39c2.209139 0 4 1.790861 4 4v28.87c-1.11 2.16-2.11 4.34-3 6.49-.5933333 1.4266667-1.1333333 2.8366667-1.62 4.23-1.57 4.5-.73 2.84-2.19 5.91z" fill="#fdd834"/><path id="Shape" d="m45 4v35.36c-.5933333 1.4266667-1.1333333 2.8366667-1.62 4.23-1.57 4.5-.73 2.84-2.19 5.91-.4722034 1.0134425-.0334425 2.2177965.98 2.6899999 1.0134425.4722035 2.2177965.0334426 2.69-.9799999 0-.11.1-.21.14-.31v6.1c0 .5522847-.4477153 1-1 1h-33c-.5522847 0-1-.4477153-1-1v-52c0-1.32608245-.5267842-2.59785201-1.46446609-3.53553391-.9376819-.93768189-2.20945146-1.46446609-3.53553391-1.46446609h36c2.209139 0 4 1.790861 4 4z" fill="#ffeb3a"/><path id="Shape" d="m51.07 27.4c.13-.22.27-.43.41-.65l-.4.65z" fill="#4fba6f"/><rect id="Rectangle-path" fill="#fec108" height="4" rx="1" width="28" x="15" y="4"/><path id="Shape" d="m55.69 29.56c-2.4533353 7.0182177-5.8152567 13.6849079-10 19.83l-3.66-1.72c2.0995915-7.1215667 5.1254696-13.9365167 9-20.27z" fill="#02a9f4"/><path id="Shape" d="m57.81 23.87-.87 1.83-3.66-1.7.86-1.82c.3054621-.6555824.9374697-1.0984034 1.6579517-1.1616566.720482-.0632533 1.4199801.2626709 1.835.855.41502.5923291.4825104 1.3610742.1770483 2.0166566z" fill="#02a9f4"/><path id="Shape" d="m56.94 25.7c-.33 1.13-.72 2.25-1.08 3.37 0 .17-.11.33-.17.49l-4.61-2.16.4-.65c.58-.93 1.18-1.85 1.8-2.77z" fill="#cfd8dc"/><path id="Shape" d="m45.72 49.39-.86 1.82c-.4722035 1.0134425-1.6765575 1.4522034-2.69.9799999-1.0134425-.4722034-1.4522034-1.6765574-.98-2.6899999l.87-1.83z" fill="#0377bc"/><path id="Shape" d="m55.86 29.07c0 .17-.1.33-.16.49.05-.16.11-.32.16-.49z" fill="#4fba6f"/></g><g id="Layer_4" fill="#000"><path id="Shape" d="m19 25c0 .5522847.4477153 1 1 1s1-.4477153 1-1v-.58c1.6772521-.1049871 2.9875276-1.4895116 3-3.17 0-2.76-2.43-3.06-3.88-3.24-1.8-.23-2.12-.42-2.12-1.26 0-1.44 3.33-1.72 4.13-.39.2761424.4832491.8917508.6511424 1.375.375.4832491-.2761424.6511424-.8917508.375-1.375-.6635202-.9738558-1.7114462-1.6178937-2.88-1.77v-.59c0-.5522847-.4477153-1-1-1s-1 .4477153-1 1v.61c-1.6368447.1649937-2.9097833 1.4973362-3 3.14 0 2.76 2.43 3.06 3.88 3.24 1.8.23 2.12.42 2.12 1.26 0 1.09-1.25 1.25-2 1.25-.7955202.0568423-1.59057-.1167493-2.29-.5-.3921222-.3921221-1.0278778-.3921221-1.42 0-.3921221.3921222-.3921221 1.0278778 0 1.42.7696372.620779 1.7216037.9720582 2.71 1z"/><path id="Shape" d="m26.29 22c-.1893127.1877666-.2957983.4433625-.2957983.71s.1064856.5222334.2957983.71c.7696372.620779 1.7216037.9720582 2.71 1v.58c0 .5522847.4477153 1 1 1s1-.4477153 1-1v-.58c1.6772521-.1049871 2.9875276-1.4895116 3-3.17 0-2.76-2.43-3.06-3.88-3.24-1.8-.23-2.12-.42-2.12-1.26 0-1.44 3.33-1.72 4.13-.39.2761424.4832491.8917508.6511423 1.375.3749999.4832491-.2761423.6511423-.8917507.375-1.3749999-.6635202-.9738558-1.7114462-1.6178937-2.88-1.77v-.59c0-.5522847-.4477153-1-1-1s-1 .4477153-1 1v.61c-1.6368447.1649937-2.9097833 1.4973362-3 3.14 0 2.76 2.43 3.06 3.88 3.24 1.8.23 2.12.42 2.12 1.26 0 1.09-1.25 1.25-2 1.25-.7955202.0568423-1.59057-.1167493-2.29-.5-.1877666-.1893127-.4433625-.2957983-.71-.2957983s-.5222334.1064856-.71.2957983z"/><path id="Shape" d="m40.12 18c-1.8-.23-2.12-.42-2.12-1.26 0-1.44 3.33-1.72 4.13-.39.1786328.3126074.5104704.5061691.8705127.5077722.3600423.0016032.6935905-.1889957.875-.5.1814095-.3110042.1831201-.6951648.0044873-1.0077722-.6655209-.9700702-1.7131494-1.6102876-2.88-1.76v-.59c0-.5522847-.4477153-1-1-1s-1 .4477153-1 1v.61c-1.6368447.1649937-2.9097833 1.4973362-3 3.14 0 2.76 2.43 3.06 3.88 3.24 1.8.23 2.12.42 2.12 1.26 0 1.09-1.25 1.25-2 1.25-.7955202.0568423-1.59057-.1167493-2.29-.5-.2536586-.2536586-.623374-.3527235-.969878-.259878-.3465041.0928454-.6171546.3634959-.71.71-.0928455.346504.0062194.7162194.259878.969878.7696372.620779 1.7216037.9720582 2.71 1v.58c0 .5522847.4477153 1 1 1s1-.4477153 1-1v-.58c1.6772521-.1049871 2.9875276-1.4895116 3-3.17 0-2.76-2.43-3.06-3.88-3.25z"/><path id="Shape" d="m42 28h-24c-.5522847 0-1 .4477153-1 1s.4477153 1 1 1h24c.5522847 0 1-.4477153 1-1s-.4477153-1-1-1z"/><path id="Shape" d="m28 33c0-.5522847-.4477153-1-1-1h-9c-.5522847 0-1 .4477153-1 1s.4477153 1 1 1h9c.5522847 0 1-.4477153 1-1z"/><path id="Shape" d="m38 45c-.5522847 0-1 .4477153-1 1 0 3.31-2.74 4-5 4-1.3194656.0177932-2.6331149-.1780722-3.89-.58 1.1885183-1.1662453 1.867874-2.7550032 1.89-4.42 0-5.42-3.56-6-5.1-6-4.64 0-5.52 6.92-.54 10.72-.2361773.1310399-.4799412.247913-.73.35-.5136248.2043454-.7643454.7863752-.56 1.3s.7863752.7643454 1.3.56c.6757005-.2737111 1.3250523-.6084286 1.94-1 1.7977006.7615355 3.7384693 1.1264955 5.69 1.07 4.41 0 7-2.24 7-6 0-.5522847-.4477153-1-1-1zm-11.88 3.51c-4.05-2.51-3.83-7.51-1.22-7.51 1.33 0 3.1.41 3.1 4-.0823717 1.3888692-.7695236 2.6717965-1.88 3.51z"/><path id="Shape" d="m2 28h8v30c0 1.1045695.8954305 2 2 2h36c1.1045695 0 2-.8954305 2-2v-10.9c3.7854492-6.267397 6.7656156-12.9870508 8.87-20l.84-1.77c.3411449-.7215138.380731-1.5492226.11-2.3-.3905653-1.1763678-1.4643801-1.991417-2.7024457-2.0512163-1.2380656-.0597992-2.3854332.6479658-2.8875543 1.7812163l-.47 1c-1.2844766-.3373637-2.6518372-.1118946-3.76.62v-19.38c0-2.76142375-2.2385763-5-5-5h-39c-3.3137085 0-6 2.6862915-6 6v20c0 1.1045695.8954305 2 2 2zm41.06 23.69c-.17-.46 0-.64.47-1.69l1.86.87-.43.91c-.1532116.4052409-.549944.6657345-.9826954.6452358-.4327514-.0204988-.8030843-.3173271-.9173046-.7352358zm3.31-2.57-2.11-1c1.9985633-6.4542447 4.757958-12.6477767 8.22-18.45l3 1.39c-2.3069936 6.361149-5.3653098 12.4240678-9.11 18.06zm10.37-21.89c-.21.66-.43 1.3-.64 1.95l-2.57-1.18c.36-.58.72-1.16 1.1-1.73zm1.2-3.56c.17.46 0 .65-.47 1.7l-1.86-.87.43-.92c.1532116-.4052409.549944-.6657345.9826954-.6452358.4327514.0204988.8030843.3173271.9173046.7352358zm-5.24 1.9c-1 1.58-2.07 3.29-2.7 4.38v-3.09c.6878372-.778336 1.6623087-1.2439168 2.7-1.29zm-7.7-23.57c1.6568542 0 3 1.34314575 3 3v21.07c-2.27 2.51-3.8 6-5.25 9.1-.1737115.4845876.0488472 1.0218798.5143384 1.2416951s1.0218081.0503255 1.2856616-.3916951c.9990518-2.2949955 2.1516643-4.5200389 3.45-6.66v4.3c-2.3956101 4.6923342-4.360338 9.5924393-5.87 14.64l-.84 1.77c-.5420389 1.1557996-.2932722 2.5280288.62 3.42l-.24.51h-22.67c-.5522847 0-1 .4477153-1 1s.4477153 1 1 1h23.3c.3882694.0027797.7430498-.2194455.91-.57l.51-1.09c1.2756872.1443181 2.5018134-.5390964 3.05-1.7.3236259-.8350741.7359899-1.6329816 1.23-2.38v7.74h-36v-52c-.0005873-1.47614597-.5453153-2.90027128-1.53-4zm-43 4c0-2.209139 1.790861-4 4-4s4 1.790861 4 4v20h-8z"/><path id="Shape" d="m17 10h26c1.1045695 0 2-.8954305 2-2v-2c0-1.1045695-.8954305-2-2-2h-26c-1.1045695 0-2 .8954305-2 2v2c0 1.1045695.8954305 2 2 2zm0-4h26v2h-26z"/></g></g></svg>